<mxfile host="Electron" agent="Mozilla/5.0 (Windows NT 10.0; Win64; x64) AppleWebKit/537.36 (KHTML, like Gecko) draw.io/24.7.17 Chrome/128.0.6613.36 Electron/32.0.1 Safari/537.36" version="24.7.17">
  <diagram id="C5RBs43oDa-KdzZeNtuy" name="Page-1">
    <mxGraphModel dx="1020" dy="830" grid="0" gridSize="10" guides="1" tooltips="1" connect="0" arrows="0" fold="1" page="0" pageScale="1" pageWidth="827" pageHeight="1169" math="0" shadow="0">
      <root>
        <mxCell id="WIyWlLk6GJQsqaUBKTNV-0" />
        <mxCell id="WIyWlLk6GJQsqaUBKTNV-1" parent="WIyWlLk6GJQsqaUBKTNV-0" />
        <mxCell id="kNPgMg_u-2HI5fr7H4LX-144" value="" style="endArrow=classic;html=1;rounded=0;exitX=0.5;exitY=1;exitDx=0;exitDy=0;strokeWidth=1.1810999999999998;strokeColor=#000000;fontSize=10;movable=1;resizable=1;rotatable=1;deletable=1;editable=1;locked=0;connectable=1;" parent="WIyWlLk6GJQsqaUBKTNV-1" edge="1">
          <mxGeometry width="50" height="50" relative="1" as="geometry">
            <mxPoint x="712.1999999999999" y="3222.95" as="sourcePoint" />
            <mxPoint x="712" y="3352" as="targetPoint" />
          </mxGeometry>
        </mxCell>
        <mxCell id="kNPgMg_u-2HI5fr7H4LX-2" value="" style="endArrow=classic;html=1;rounded=0;exitX=0.5;exitY=1;exitDx=0;exitDy=0;entryX=0.5;entryY=0;entryDx=0;entryDy=0;strokeWidth=1.1810999999999998;strokeColor=#000000;fontSize=10;" parent="WIyWlLk6GJQsqaUBKTNV-1" edge="1">
          <mxGeometry width="50" height="50" relative="1" as="geometry">
            <mxPoint x="706.0550000000001" y="330.05500000000006" as="sourcePoint" />
            <mxPoint x="706.06" y="360" as="targetPoint" />
          </mxGeometry>
        </mxCell>
        <mxCell id="kNPgMg_u-2HI5fr7H4LX-3" value="&lt;span style=&quot;font-size: 10px;&quot;&gt;Початок&lt;/span&gt;" style="rounded=1;whiteSpace=wrap;html=1;arcSize=50;" parent="WIyWlLk6GJQsqaUBKTNV-1" vertex="1">
          <mxGeometry x="647.01" y="271" width="118.11" height="59.055" as="geometry" />
        </mxCell>
        <mxCell id="kNPgMg_u-2HI5fr7H4LX-4" value="Ввод input" style="shape=parallelogram;perimeter=parallelogramPerimeter;whiteSpace=wrap;html=1;fixedSize=1;strokeWidth=1.1810999999999998;strokeColor=#000000;fontSize=10;" parent="WIyWlLk6GJQsqaUBKTNV-1" vertex="1">
          <mxGeometry x="647.01" y="448.95" width="118.11" height="59.055" as="geometry" />
        </mxCell>
        <mxCell id="kNPgMg_u-2HI5fr7H4LX-6" value="Цикл 1" style="shape=loopLimit;whiteSpace=wrap;html=1;strokeWidth=1.1810999999999998;strokeColor=#000000;fontSize=10;" parent="WIyWlLk6GJQsqaUBKTNV-1" vertex="1">
          <mxGeometry x="647.01" y="360" width="118.11" height="59.055" as="geometry" />
        </mxCell>
        <mxCell id="kNPgMg_u-2HI5fr7H4LX-8" value="" style="endArrow=classic;html=1;rounded=0;exitX=0.5;exitY=1;exitDx=0;exitDy=0;entryX=0.5;entryY=0;entryDx=0;entryDy=0;strokeWidth=1.1810999999999998;strokeColor=#000000;fontSize=10;" parent="WIyWlLk6GJQsqaUBKTNV-1" edge="1">
          <mxGeometry width="50" height="50" relative="1" as="geometry">
            <mxPoint x="705.78" y="419.22" as="sourcePoint" />
            <mxPoint x="705.8399999999999" y="449.22" as="targetPoint" />
          </mxGeometry>
        </mxCell>
        <mxCell id="kNPgMg_u-2HI5fr7H4LX-10" value="input є числом" style="rhombus;whiteSpace=wrap;html=1;strokeWidth=1.1810999999999998;strokeColor=#000000;fontSize=10;" parent="WIyWlLk6GJQsqaUBKTNV-1" vertex="1">
          <mxGeometry x="647.01" y="538.78" width="118.11" height="59.055" as="geometry" />
        </mxCell>
        <mxCell id="kNPgMg_u-2HI5fr7H4LX-11" value="" style="endArrow=classic;html=1;rounded=0;exitX=0.5;exitY=1;exitDx=0;exitDy=0;entryX=0.5;entryY=0;entryDx=0;entryDy=0;strokeWidth=1.1810999999999998;strokeColor=#000000;fontSize=10;" parent="WIyWlLk6GJQsqaUBKTNV-1" target="kNPgMg_u-2HI5fr7H4LX-10" edge="1">
          <mxGeometry width="50" height="50" relative="1" as="geometry">
            <mxPoint x="706.06" y="508.78" as="sourcePoint" />
            <mxPoint x="726.98" y="538.78" as="targetPoint" />
          </mxGeometry>
        </mxCell>
        <mxCell id="kNPgMg_u-2HI5fr7H4LX-12" value="Так" style="text;html=1;align=center;verticalAlign=middle;resizable=0;points=[];autosize=1;strokeColor=none;fillColor=none;strokeWidth=1.1810999999999998;fontSize=10;" parent="WIyWlLk6GJQsqaUBKTNV-1" vertex="1">
          <mxGeometry x="602.06" y="549.61" width="34" height="24" as="geometry" />
        </mxCell>
        <mxCell id="kNPgMg_u-2HI5fr7H4LX-13" value="" style="line;strokeWidth=1.1810999999999998;html=1;strokeColor=#000000;fontSize=10;" parent="WIyWlLk6GJQsqaUBKTNV-1" vertex="1">
          <mxGeometry x="589.06" y="563.61" width="59" height="10" as="geometry" />
        </mxCell>
        <mxCell id="kNPgMg_u-2HI5fr7H4LX-14" value="" style="endArrow=classic;html=1;rounded=0;exitX=0.5;exitY=1;exitDx=0;exitDy=0;entryX=0.5;entryY=0;entryDx=0;entryDy=0;strokeWidth=1.1810999999999998;strokeColor=#000000;fontSize=10;" parent="WIyWlLk6GJQsqaUBKTNV-1" edge="1">
          <mxGeometry width="50" height="50" relative="1" as="geometry">
            <mxPoint x="589.06" y="568" as="sourcePoint" />
            <mxPoint x="589.06" y="598" as="targetPoint" />
          </mxGeometry>
        </mxCell>
        <mxCell id="kNPgMg_u-2HI5fr7H4LX-15" value="Ні" style="text;html=1;align=center;verticalAlign=middle;resizable=0;points=[];autosize=1;strokeColor=none;fillColor=none;strokeWidth=1.1810999999999998;fontSize=10;" parent="WIyWlLk6GJQsqaUBKTNV-1" vertex="1">
          <mxGeometry x="778.6" y="549.61" width="27" height="24" as="geometry" />
        </mxCell>
        <mxCell id="kNPgMg_u-2HI5fr7H4LX-16" value="Вивід&lt;div&gt;&quot;Початкове значення має бути числом&quot;&lt;br&gt;&lt;/div&gt;" style="shape=parallelogram;perimeter=parallelogramPerimeter;whiteSpace=wrap;html=1;fixedSize=1;strokeWidth=1.1810999999999998;strokeColor=#000000;fontSize=10;" parent="WIyWlLk6GJQsqaUBKTNV-1" vertex="1">
          <mxGeometry x="765.12" y="598.61" width="118.11" height="59.055" as="geometry" />
        </mxCell>
        <mxCell id="kNPgMg_u-2HI5fr7H4LX-17" value="" style="line;strokeWidth=1.1810999999999998;html=1;direction=west;strokeColor=#000000;fontSize=10;" parent="WIyWlLk6GJQsqaUBKTNV-1" vertex="1">
          <mxGeometry x="765.12" y="563.61" width="59" height="10" as="geometry" />
        </mxCell>
        <mxCell id="kNPgMg_u-2HI5fr7H4LX-18" value="" style="endArrow=classic;html=1;rounded=0;exitX=0.5;exitY=1;exitDx=0;exitDy=0;entryX=0.5;entryY=0;entryDx=0;entryDy=0;strokeWidth=1.1810999999999998;strokeColor=#000000;fontSize=10;" parent="WIyWlLk6GJQsqaUBKTNV-1" edge="1">
          <mxGeometry width="50" height="50" relative="1" as="geometry">
            <mxPoint x="824.12" y="568.61" as="sourcePoint" />
            <mxPoint x="824.12" y="598.61" as="targetPoint" />
          </mxGeometry>
        </mxCell>
        <mxCell id="kNPgMg_u-2HI5fr7H4LX-19" value="" style="endArrow=classic;html=1;rounded=0;exitX=0.5;exitY=1;exitDx=0;exitDy=0;entryX=0.5;entryY=0;entryDx=0;entryDy=0;strokeWidth=1.1810999999999998;strokeColor=#000000;fontSize=10;" parent="WIyWlLk6GJQsqaUBKTNV-1" edge="1">
          <mxGeometry width="50" height="50" relative="1" as="geometry">
            <mxPoint x="823.75" y="657.6700000000001" as="sourcePoint" />
            <mxPoint x="823.75" y="687.67" as="targetPoint" />
          </mxGeometry>
        </mxCell>
        <mxCell id="kNPgMg_u-2HI5fr7H4LX-20" value="valide = true" style="rounded=0;whiteSpace=wrap;html=1;strokeWidth=1.1810999999999998;strokeColor=#000000;fontSize=10;" parent="WIyWlLk6GJQsqaUBKTNV-1" vertex="1">
          <mxGeometry x="529.95" y="686.4399999999999" width="118.11" height="59.055" as="geometry" />
        </mxCell>
        <mxCell id="kNPgMg_u-2HI5fr7H4LX-21" value="valide = false" style="rounded=0;whiteSpace=wrap;html=1;strokeWidth=1.1810999999999998;strokeColor=#000000;fontSize=10;" parent="WIyWlLk6GJQsqaUBKTNV-1" vertex="1">
          <mxGeometry x="765.12" y="687.9999999999999" width="118.11" height="59.055" as="geometry" />
        </mxCell>
        <mxCell id="kNPgMg_u-2HI5fr7H4LX-22" value="" style="line;strokeWidth=1.1810999999999998;direction=south;html=1;strokeColor=#000000;fontSize=10;" parent="WIyWlLk6GJQsqaUBKTNV-1" vertex="1">
          <mxGeometry x="582.08" y="745" width="10" height="29.94" as="geometry" />
        </mxCell>
        <mxCell id="kNPgMg_u-2HI5fr7H4LX-23" value="" style="line;strokeWidth=1.1810999999999998;direction=south;html=1;strokeColor=#000000;fontSize=10;" parent="WIyWlLk6GJQsqaUBKTNV-1" vertex="1">
          <mxGeometry x="820.03" y="747" width="10" height="27.99" as="geometry" />
        </mxCell>
        <mxCell id="kNPgMg_u-2HI5fr7H4LX-24" value="" style="line;strokeWidth=1.1810999999999998;html=1;strokeColor=#000000;fontSize=10;" parent="WIyWlLk6GJQsqaUBKTNV-1" vertex="1">
          <mxGeometry x="586.97" y="769.94" width="238" height="10" as="geometry" />
        </mxCell>
        <mxCell id="kNPgMg_u-2HI5fr7H4LX-25" value="" style="endArrow=classic;html=1;rounded=0;exitX=0.5;exitY=1;exitDx=0;exitDy=0;entryX=0.5;entryY=0;entryDx=0;entryDy=0;strokeWidth=1.1810999999999998;strokeColor=#000000;fontSize=10;" parent="WIyWlLk6GJQsqaUBKTNV-1" edge="1">
          <mxGeometry width="50" height="50" relative="1" as="geometry">
            <mxPoint x="702.71" y="774.9399999999998" as="sourcePoint" />
            <mxPoint x="702.97" y="816.8299999999999" as="targetPoint" />
          </mxGeometry>
        </mxCell>
        <mxCell id="kNPgMg_u-2HI5fr7H4LX-26" value="" style="shape=loopLimit;whiteSpace=wrap;html=1;strokeWidth=1.1810999999999998;strokeColor=#000000;rotation=-180;fontSize=10;" parent="WIyWlLk6GJQsqaUBKTNV-1" vertex="1">
          <mxGeometry x="647.01" y="815.94" width="118.11" height="59.055" as="geometry" />
        </mxCell>
        <mxCell id="kNPgMg_u-2HI5fr7H4LX-27" value="&lt;div style=&quot;font-size: 10px;&quot;&gt;Кінець циклу 1&lt;/div&gt;&lt;div style=&quot;font-size: 10px;&quot;&gt;valide = false&lt;br&gt;&lt;/div&gt;" style="text;html=1;align=center;verticalAlign=middle;whiteSpace=wrap;rounded=0;fontSize=10;" parent="WIyWlLk6GJQsqaUBKTNV-1" vertex="1">
          <mxGeometry x="647.06" y="827.05" width="118.01" height="30" as="geometry" />
        </mxCell>
        <mxCell id="kNPgMg_u-2HI5fr7H4LX-29" value="startX = input&amp;nbsp;" style="rounded=0;whiteSpace=wrap;html=1;strokeWidth=1.1810999999999998;strokeColor=#000000;fontSize=10;" parent="WIyWlLk6GJQsqaUBKTNV-1" vertex="1">
          <mxGeometry x="529.95" y="597.8399999999999" width="118.11" height="59.055" as="geometry" />
        </mxCell>
        <mxCell id="kNPgMg_u-2HI5fr7H4LX-30" value="" style="line;strokeWidth=1.1810999999999998;direction=south;html=1;strokeColor=#000000;fontSize=10;" parent="WIyWlLk6GJQsqaUBKTNV-1" vertex="1">
          <mxGeometry x="582.08" y="656.5" width="10" height="29.94" as="geometry" />
        </mxCell>
        <mxCell id="kNPgMg_u-2HI5fr7H4LX-31" value="" style="endArrow=classic;html=1;rounded=0;exitX=0.5;exitY=1;exitDx=0;exitDy=0;entryX=0.5;entryY=0;entryDx=0;entryDy=0;strokeWidth=1.1810999999999998;strokeColor=#000000;fontSize=10;" parent="WIyWlLk6GJQsqaUBKTNV-1" edge="1">
          <mxGeometry width="50" height="50" relative="1" as="geometry">
            <mxPoint x="706.0550000000001" y="877.0450000000001" as="sourcePoint" />
            <mxPoint x="706.06" y="906.99" as="targetPoint" />
          </mxGeometry>
        </mxCell>
        <mxCell id="kNPgMg_u-2HI5fr7H4LX-32" value="Ввод input" style="shape=parallelogram;perimeter=parallelogramPerimeter;whiteSpace=wrap;html=1;fixedSize=1;strokeWidth=1.1810999999999998;strokeColor=#000000;fontSize=10;" parent="WIyWlLk6GJQsqaUBKTNV-1" vertex="1">
          <mxGeometry x="647.01" y="995.94" width="118.11" height="59.055" as="geometry" />
        </mxCell>
        <mxCell id="kNPgMg_u-2HI5fr7H4LX-33" value="Цикл 2" style="shape=loopLimit;whiteSpace=wrap;html=1;strokeWidth=1.1810999999999998;strokeColor=#000000;fontSize=10;" parent="WIyWlLk6GJQsqaUBKTNV-1" vertex="1">
          <mxGeometry x="647.01" y="906.99" width="118.11" height="59.055" as="geometry" />
        </mxCell>
        <mxCell id="kNPgMg_u-2HI5fr7H4LX-34" value="" style="endArrow=classic;html=1;rounded=0;exitX=0.5;exitY=1;exitDx=0;exitDy=0;entryX=0.5;entryY=0;entryDx=0;entryDy=0;strokeWidth=1.1810999999999998;strokeColor=#000000;fontSize=10;" parent="WIyWlLk6GJQsqaUBKTNV-1" edge="1">
          <mxGeometry width="50" height="50" relative="1" as="geometry">
            <mxPoint x="705.78" y="966.21" as="sourcePoint" />
            <mxPoint x="705.8399999999999" y="996.21" as="targetPoint" />
          </mxGeometry>
        </mxCell>
        <mxCell id="kNPgMg_u-2HI5fr7H4LX-35" value="input є числом" style="rhombus;whiteSpace=wrap;html=1;strokeWidth=1.1810999999999998;strokeColor=#000000;fontSize=10;" parent="WIyWlLk6GJQsqaUBKTNV-1" vertex="1">
          <mxGeometry x="647.01" y="1085.77" width="118.11" height="59.055" as="geometry" />
        </mxCell>
        <mxCell id="kNPgMg_u-2HI5fr7H4LX-36" value="" style="endArrow=classic;html=1;rounded=0;exitX=0.5;exitY=1;exitDx=0;exitDy=0;entryX=0.5;entryY=0;entryDx=0;entryDy=0;strokeWidth=1.1810999999999998;strokeColor=#000000;fontSize=10;" parent="WIyWlLk6GJQsqaUBKTNV-1" target="kNPgMg_u-2HI5fr7H4LX-35" edge="1">
          <mxGeometry width="50" height="50" relative="1" as="geometry">
            <mxPoint x="706.06" y="1055.77" as="sourcePoint" />
            <mxPoint x="726.98" y="1085.77" as="targetPoint" />
          </mxGeometry>
        </mxCell>
        <mxCell id="kNPgMg_u-2HI5fr7H4LX-37" value="Так" style="text;html=1;align=center;verticalAlign=middle;resizable=0;points=[];autosize=1;strokeColor=none;fillColor=none;strokeWidth=1.1810999999999998;fontSize=10;" parent="WIyWlLk6GJQsqaUBKTNV-1" vertex="1">
          <mxGeometry x="602.06" y="1096.6" width="34" height="24" as="geometry" />
        </mxCell>
        <mxCell id="kNPgMg_u-2HI5fr7H4LX-38" value="" style="line;strokeWidth=1.1810999999999998;html=1;strokeColor=#000000;fontSize=10;" parent="WIyWlLk6GJQsqaUBKTNV-1" vertex="1">
          <mxGeometry x="589.06" y="1110.6" width="59" height="10" as="geometry" />
        </mxCell>
        <mxCell id="kNPgMg_u-2HI5fr7H4LX-39" value="" style="endArrow=classic;html=1;rounded=0;exitX=0.5;exitY=1;exitDx=0;exitDy=0;entryX=0.5;entryY=0;entryDx=0;entryDy=0;strokeWidth=1.1810999999999998;strokeColor=#000000;fontSize=10;" parent="WIyWlLk6GJQsqaUBKTNV-1" edge="1">
          <mxGeometry width="50" height="50" relative="1" as="geometry">
            <mxPoint x="589.06" y="1114.99" as="sourcePoint" />
            <mxPoint x="589.06" y="1144.99" as="targetPoint" />
          </mxGeometry>
        </mxCell>
        <mxCell id="kNPgMg_u-2HI5fr7H4LX-40" value="Ні" style="text;html=1;align=center;verticalAlign=middle;resizable=0;points=[];autosize=1;strokeColor=none;fillColor=none;strokeWidth=1.1810999999999998;fontSize=10;" parent="WIyWlLk6GJQsqaUBKTNV-1" vertex="1">
          <mxGeometry x="778.6" y="1096.6" width="27" height="24" as="geometry" />
        </mxCell>
        <mxCell id="kNPgMg_u-2HI5fr7H4LX-41" value="" style="line;strokeWidth=1.1810999999999998;html=1;direction=west;strokeColor=#000000;fontSize=10;" parent="WIyWlLk6GJQsqaUBKTNV-1" vertex="1">
          <mxGeometry x="765.12" y="1110.6" width="59" height="10" as="geometry" />
        </mxCell>
        <mxCell id="kNPgMg_u-2HI5fr7H4LX-42" value="" style="endArrow=classic;html=1;rounded=0;exitX=0.5;exitY=1;exitDx=0;exitDy=0;entryX=0.5;entryY=0;entryDx=0;entryDy=0;strokeWidth=1.1810999999999998;strokeColor=#000000;fontSize=10;" parent="WIyWlLk6GJQsqaUBKTNV-1" edge="1">
          <mxGeometry width="50" height="50" relative="1" as="geometry">
            <mxPoint x="824.12" y="1115.6" as="sourcePoint" />
            <mxPoint x="824.12" y="1145.6" as="targetPoint" />
          </mxGeometry>
        </mxCell>
        <mxCell id="kNPgMg_u-2HI5fr7H4LX-43" value="" style="endArrow=classic;html=1;rounded=0;exitX=0.5;exitY=1;exitDx=0;exitDy=0;entryX=0.5;entryY=0;entryDx=0;entryDy=0;strokeWidth=1.1810999999999998;strokeColor=#000000;fontSize=10;" parent="WIyWlLk6GJQsqaUBKTNV-1" edge="1">
          <mxGeometry width="50" height="50" relative="1" as="geometry">
            <mxPoint x="823.75" y="1204.66" as="sourcePoint" />
            <mxPoint x="823.75" y="1234.6599999999999" as="targetPoint" />
          </mxGeometry>
        </mxCell>
        <mxCell id="kNPgMg_u-2HI5fr7H4LX-44" value="valide = true" style="rounded=0;whiteSpace=wrap;html=1;strokeWidth=1.1810999999999998;strokeColor=#000000;fontSize=10;" parent="WIyWlLk6GJQsqaUBKTNV-1" vertex="1">
          <mxGeometry x="529.95" y="1233.4299999999998" width="118.11" height="59.055" as="geometry" />
        </mxCell>
        <mxCell id="kNPgMg_u-2HI5fr7H4LX-45" value="" style="line;strokeWidth=1.1810999999999998;direction=south;html=1;strokeColor=#000000;fontSize=10;" parent="WIyWlLk6GJQsqaUBKTNV-1" vertex="1">
          <mxGeometry x="582.08" y="1291.99" width="10" height="29.94" as="geometry" />
        </mxCell>
        <mxCell id="kNPgMg_u-2HI5fr7H4LX-46" value="" style="line;strokeWidth=1.1810999999999998;direction=south;html=1;strokeColor=#000000;fontSize=10;" parent="WIyWlLk6GJQsqaUBKTNV-1" vertex="1">
          <mxGeometry x="820.03" y="1293.99" width="10" height="27.99" as="geometry" />
        </mxCell>
        <mxCell id="kNPgMg_u-2HI5fr7H4LX-47" value="" style="line;strokeWidth=1.1810999999999998;html=1;strokeColor=#000000;fontSize=10;" parent="WIyWlLk6GJQsqaUBKTNV-1" vertex="1">
          <mxGeometry x="586.97" y="1316.93" width="238" height="10" as="geometry" />
        </mxCell>
        <mxCell id="kNPgMg_u-2HI5fr7H4LX-48" value="" style="endArrow=classic;html=1;rounded=0;exitX=0.5;exitY=1;exitDx=0;exitDy=0;entryX=0.5;entryY=0;entryDx=0;entryDy=0;strokeWidth=1.1810999999999998;strokeColor=#000000;fontSize=10;" parent="WIyWlLk6GJQsqaUBKTNV-1" edge="1">
          <mxGeometry width="50" height="50" relative="1" as="geometry">
            <mxPoint x="702.71" y="1321.9299999999998" as="sourcePoint" />
            <mxPoint x="702.97" y="1363.82" as="targetPoint" />
          </mxGeometry>
        </mxCell>
        <mxCell id="kNPgMg_u-2HI5fr7H4LX-49" value="" style="shape=loopLimit;whiteSpace=wrap;html=1;strokeWidth=1.1810999999999998;strokeColor=#000000;rotation=-180;fontSize=10;" parent="WIyWlLk6GJQsqaUBKTNV-1" vertex="1">
          <mxGeometry x="647.01" y="1362.93" width="118.11" height="59.055" as="geometry" />
        </mxCell>
        <mxCell id="kNPgMg_u-2HI5fr7H4LX-50" value="&lt;div style=&quot;font-size: 10px;&quot;&gt;Кінець циклу 2&lt;/div&gt;&lt;div style=&quot;font-size: 10px;&quot;&gt;valide = false&lt;br&gt;&lt;/div&gt;" style="text;html=1;align=center;verticalAlign=middle;whiteSpace=wrap;rounded=0;fontSize=10;" parent="WIyWlLk6GJQsqaUBKTNV-1" vertex="1">
          <mxGeometry x="647.06" y="1374.04" width="118.01" height="30" as="geometry" />
        </mxCell>
        <mxCell id="kNPgMg_u-2HI5fr7H4LX-51" value="endX = input&amp;nbsp;" style="rounded=0;whiteSpace=wrap;html=1;strokeWidth=1.1810999999999998;strokeColor=#000000;fontSize=10;" parent="WIyWlLk6GJQsqaUBKTNV-1" vertex="1">
          <mxGeometry x="529.95" y="1144.83" width="118.11" height="59.055" as="geometry" />
        </mxCell>
        <mxCell id="kNPgMg_u-2HI5fr7H4LX-52" value="" style="line;strokeWidth=1.1810999999999998;direction=south;html=1;strokeColor=#000000;fontSize=10;" parent="WIyWlLk6GJQsqaUBKTNV-1" vertex="1">
          <mxGeometry x="582.08" y="1203.49" width="10" height="29.94" as="geometry" />
        </mxCell>
        <mxCell id="kNPgMg_u-2HI5fr7H4LX-53" value="Вивід&lt;div&gt;&quot;Кiнцеве&amp;nbsp;&lt;/div&gt;&lt;div&gt;значення має бути числом&quot;&lt;br&gt;&lt;/div&gt;" style="shape=parallelogram;perimeter=parallelogramPerimeter;whiteSpace=wrap;html=1;fixedSize=1;strokeWidth=1.1810999999999998;strokeColor=#000000;fontSize=10;" parent="WIyWlLk6GJQsqaUBKTNV-1" vertex="1">
          <mxGeometry x="765.98" y="1144.83" width="118.11" height="59.055" as="geometry" />
        </mxCell>
        <mxCell id="kNPgMg_u-2HI5fr7H4LX-54" value="valide = false" style="rounded=0;whiteSpace=wrap;html=1;strokeWidth=1.1810999999999998;strokeColor=#000000;fontSize=10;" parent="WIyWlLk6GJQsqaUBKTNV-1" vertex="1">
          <mxGeometry x="765.98" y="1234.2199999999998" width="118.11" height="59.055" as="geometry" />
        </mxCell>
        <mxCell id="kNPgMg_u-2HI5fr7H4LX-55" value="" style="endArrow=classic;html=1;rounded=0;exitX=0.5;exitY=1;exitDx=0;exitDy=0;entryX=0.5;entryY=0;entryDx=0;entryDy=0;strokeWidth=1.1810999999999998;strokeColor=#000000;fontSize=10;" parent="WIyWlLk6GJQsqaUBKTNV-1" edge="1">
          <mxGeometry width="50" height="50" relative="1" as="geometry">
            <mxPoint x="708.105" y="1421.9850000000001" as="sourcePoint" />
            <mxPoint x="708.1099999999999" y="1451.9299999999998" as="targetPoint" />
          </mxGeometry>
        </mxCell>
        <mxCell id="kNPgMg_u-2HI5fr7H4LX-56" value="Ввод input" style="shape=parallelogram;perimeter=parallelogramPerimeter;whiteSpace=wrap;html=1;fixedSize=1;strokeWidth=1.1810999999999998;strokeColor=#000000;fontSize=10;" parent="WIyWlLk6GJQsqaUBKTNV-1" vertex="1">
          <mxGeometry x="647.01" y="1540.88" width="118.11" height="59.055" as="geometry" />
        </mxCell>
        <mxCell id="kNPgMg_u-2HI5fr7H4LX-57" value="Цикл 3" style="shape=loopLimit;whiteSpace=wrap;html=1;strokeWidth=1.1810999999999998;strokeColor=#000000;fontSize=10;" parent="WIyWlLk6GJQsqaUBKTNV-1" vertex="1">
          <mxGeometry x="647.01" y="1451.9299999999998" width="118.11" height="59.055" as="geometry" />
        </mxCell>
        <mxCell id="kNPgMg_u-2HI5fr7H4LX-58" value="" style="endArrow=classic;html=1;rounded=0;exitX=0.5;exitY=1;exitDx=0;exitDy=0;entryX=0.5;entryY=0;entryDx=0;entryDy=0;strokeWidth=1.1810999999999998;strokeColor=#000000;fontSize=10;" parent="WIyWlLk6GJQsqaUBKTNV-1" edge="1">
          <mxGeometry width="50" height="50" relative="1" as="geometry">
            <mxPoint x="707.8299999999999" y="1511.15" as="sourcePoint" />
            <mxPoint x="707.8899999999999" y="1541.15" as="targetPoint" />
          </mxGeometry>
        </mxCell>
        <mxCell id="kNPgMg_u-2HI5fr7H4LX-59" value="input є числом" style="rhombus;whiteSpace=wrap;html=1;strokeWidth=1.1810999999999998;strokeColor=#000000;fontSize=10;" parent="WIyWlLk6GJQsqaUBKTNV-1" vertex="1">
          <mxGeometry x="649.01" y="1630" width="118.11" height="59.055" as="geometry" />
        </mxCell>
        <mxCell id="kNPgMg_u-2HI5fr7H4LX-60" value="" style="endArrow=classic;html=1;rounded=0;exitX=0.5;exitY=1;exitDx=0;exitDy=0;entryX=0.5;entryY=0;entryDx=0;entryDy=0;strokeWidth=1.1810999999999998;strokeColor=#000000;fontSize=10;" parent="WIyWlLk6GJQsqaUBKTNV-1" target="kNPgMg_u-2HI5fr7H4LX-59" edge="1">
          <mxGeometry width="50" height="50" relative="1" as="geometry">
            <mxPoint x="708.1099999999999" y="1600.71" as="sourcePoint" />
            <mxPoint x="729.03" y="1630.71" as="targetPoint" />
          </mxGeometry>
        </mxCell>
        <mxCell id="kNPgMg_u-2HI5fr7H4LX-61" value="Так" style="text;html=1;align=center;verticalAlign=middle;resizable=0;points=[];autosize=1;strokeColor=none;fillColor=none;strokeWidth=1.1810999999999998;fontSize=10;" parent="WIyWlLk6GJQsqaUBKTNV-1" vertex="1">
          <mxGeometry x="606.1099999999999" y="1640.83" width="34" height="24" as="geometry" />
        </mxCell>
        <mxCell id="kNPgMg_u-2HI5fr7H4LX-62" value="" style="line;strokeWidth=1.1810999999999998;html=1;strokeColor=#000000;fontSize=10;" parent="WIyWlLk6GJQsqaUBKTNV-1" vertex="1">
          <mxGeometry x="593.1099999999999" y="1654.83" width="59" height="10" as="geometry" />
        </mxCell>
        <mxCell id="kNPgMg_u-2HI5fr7H4LX-63" value="" style="endArrow=classic;html=1;rounded=0;exitX=0.5;exitY=1;exitDx=0;exitDy=0;entryX=0.5;entryY=0;entryDx=0;entryDy=0;strokeWidth=1.1810999999999998;strokeColor=#000000;fontSize=10;" parent="WIyWlLk6GJQsqaUBKTNV-1" edge="1">
          <mxGeometry width="50" height="50" relative="1" as="geometry">
            <mxPoint x="593.1099999999999" y="1659.2199999999998" as="sourcePoint" />
            <mxPoint x="593.1099999999999" y="1689.2199999999998" as="targetPoint" />
          </mxGeometry>
        </mxCell>
        <mxCell id="kNPgMg_u-2HI5fr7H4LX-64" value="Ні" style="text;html=1;align=center;verticalAlign=middle;resizable=0;points=[];autosize=1;strokeColor=none;fillColor=none;strokeWidth=1.1810999999999998;fontSize=10;" parent="WIyWlLk6GJQsqaUBKTNV-1" vertex="1">
          <mxGeometry x="782.65" y="1640.83" width="27" height="24" as="geometry" />
        </mxCell>
        <mxCell id="kNPgMg_u-2HI5fr7H4LX-65" value="" style="line;strokeWidth=1.1810999999999998;html=1;direction=west;strokeColor=#000000;fontSize=10;" parent="WIyWlLk6GJQsqaUBKTNV-1" vertex="1">
          <mxGeometry x="769.17" y="1654.83" width="59" height="10" as="geometry" />
        </mxCell>
        <mxCell id="kNPgMg_u-2HI5fr7H4LX-66" value="" style="endArrow=classic;html=1;rounded=0;exitX=0.5;exitY=1;exitDx=0;exitDy=0;entryX=0.5;entryY=0;entryDx=0;entryDy=0;strokeWidth=1.1810999999999998;strokeColor=#000000;fontSize=10;" parent="WIyWlLk6GJQsqaUBKTNV-1" edge="1">
          <mxGeometry width="50" height="50" relative="1" as="geometry">
            <mxPoint x="828.17" y="1659.83" as="sourcePoint" />
            <mxPoint x="828.17" y="1689.83" as="targetPoint" />
          </mxGeometry>
        </mxCell>
        <mxCell id="kNPgMg_u-2HI5fr7H4LX-67" value="" style="endArrow=classic;html=1;rounded=0;exitX=0.5;exitY=1;exitDx=0;exitDy=0;entryX=0.5;entryY=0;entryDx=0;entryDy=0;strokeWidth=1.1810999999999998;strokeColor=#000000;fontSize=10;" parent="WIyWlLk6GJQsqaUBKTNV-1" edge="1">
          <mxGeometry width="50" height="50" relative="1" as="geometry">
            <mxPoint x="827.8" y="1748.8899999999999" as="sourcePoint" />
            <mxPoint x="827.8" y="1778.8899999999999" as="targetPoint" />
          </mxGeometry>
        </mxCell>
        <mxCell id="kNPgMg_u-2HI5fr7H4LX-68" value="valide = true" style="rounded=0;whiteSpace=wrap;html=1;strokeWidth=1.1810999999999998;strokeColor=#000000;fontSize=10;" parent="WIyWlLk6GJQsqaUBKTNV-1" vertex="1">
          <mxGeometry x="534" y="1777.6599999999999" width="118.11" height="59.055" as="geometry" />
        </mxCell>
        <mxCell id="kNPgMg_u-2HI5fr7H4LX-69" value="" style="line;strokeWidth=1.1810999999999998;direction=south;html=1;strokeColor=#000000;fontSize=10;" parent="WIyWlLk6GJQsqaUBKTNV-1" vertex="1">
          <mxGeometry x="589.06" y="2448" width="10" height="199.94" as="geometry" />
        </mxCell>
        <mxCell id="kNPgMg_u-2HI5fr7H4LX-70" value="" style="line;strokeWidth=1.1810999999999998;direction=south;html=1;strokeColor=#000000;fontSize=10;" parent="WIyWlLk6GJQsqaUBKTNV-1" vertex="1">
          <mxGeometry x="827.01" y="1834" width="10" height="813.99" as="geometry" />
        </mxCell>
        <mxCell id="kNPgMg_u-2HI5fr7H4LX-71" value="" style="line;strokeWidth=1.1810999999999998;html=1;strokeColor=#000000;fontSize=10;" parent="WIyWlLk6GJQsqaUBKTNV-1" vertex="1">
          <mxGeometry x="593.95" y="2642.9399999999996" width="238" height="10" as="geometry" />
        </mxCell>
        <mxCell id="kNPgMg_u-2HI5fr7H4LX-72" value="" style="endArrow=classic;html=1;rounded=0;exitX=0.5;exitY=1;exitDx=0;exitDy=0;entryX=0.5;entryY=0;entryDx=0;entryDy=0;strokeWidth=1.1810999999999998;strokeColor=#000000;fontSize=10;" parent="WIyWlLk6GJQsqaUBKTNV-1" edge="1">
          <mxGeometry width="50" height="50" relative="1" as="geometry">
            <mxPoint x="709.69" y="2647.9399999999996" as="sourcePoint" />
            <mxPoint x="709.9499999999998" y="2689.83" as="targetPoint" />
          </mxGeometry>
        </mxCell>
        <mxCell id="kNPgMg_u-2HI5fr7H4LX-73" value="" style="shape=loopLimit;whiteSpace=wrap;html=1;strokeWidth=1.1810999999999998;strokeColor=#000000;rotation=-180;fontSize=10;" parent="WIyWlLk6GJQsqaUBKTNV-1" vertex="1">
          <mxGeometry x="651.94" y="2688.9399999999996" width="118.11" height="59.055" as="geometry" />
        </mxCell>
        <mxCell id="kNPgMg_u-2HI5fr7H4LX-74" value="&lt;div style=&quot;font-size: 10px;&quot;&gt;Кінець циклу 3&lt;/div&gt;&lt;div style=&quot;font-size: 10px;&quot;&gt;valide = false&lt;br&gt;&lt;/div&gt;" style="text;html=1;align=center;verticalAlign=middle;whiteSpace=wrap;rounded=0;fontSize=10;" parent="WIyWlLk6GJQsqaUBKTNV-1" vertex="1">
          <mxGeometry x="651.9899999999998" y="2700.05" width="118.01" height="30" as="geometry" />
        </mxCell>
        <mxCell id="kNPgMg_u-2HI5fr7H4LX-75" value="step = input&amp;nbsp;" style="rounded=0;whiteSpace=wrap;html=1;strokeWidth=1.1810999999999998;strokeColor=#000000;fontSize=10;" parent="WIyWlLk6GJQsqaUBKTNV-1" vertex="1">
          <mxGeometry x="534" y="1689.06" width="118.11" height="59.055" as="geometry" />
        </mxCell>
        <mxCell id="kNPgMg_u-2HI5fr7H4LX-76" value="" style="line;strokeWidth=1.1810999999999998;direction=south;html=1;strokeColor=#000000;fontSize=10;" parent="WIyWlLk6GJQsqaUBKTNV-1" vertex="1">
          <mxGeometry x="586.13" y="1747.7199999999998" width="10" height="29.94" as="geometry" />
        </mxCell>
        <mxCell id="kNPgMg_u-2HI5fr7H4LX-77" value="Вивід&lt;div&gt;&quot;&lt;span style=&quot;background-color: initial;&quot;&gt;Значення кроку не може бути нулем&lt;/span&gt;&lt;span style=&quot;background-color: initial;&quot;&gt;&quot;&lt;/span&gt;&lt;/div&gt;" style="shape=parallelogram;perimeter=parallelogramPerimeter;whiteSpace=wrap;html=1;fixedSize=1;strokeWidth=1.1810999999999998;strokeColor=#000000;fontSize=10;" parent="WIyWlLk6GJQsqaUBKTNV-1" vertex="1">
          <mxGeometry x="418.99" y="1925.85" width="118.11" height="59.055" as="geometry" />
        </mxCell>
        <mxCell id="kNPgMg_u-2HI5fr7H4LX-78" value="valide = false" style="rounded=0;whiteSpace=wrap;html=1;strokeWidth=1.1810999999999998;strokeColor=#000000;fontSize=10;" parent="WIyWlLk6GJQsqaUBKTNV-1" vertex="1">
          <mxGeometry x="770.03" y="1778.4499999999998" width="118.11" height="59.055" as="geometry" />
        </mxCell>
        <mxCell id="kNPgMg_u-2HI5fr7H4LX-79" value="" style="endArrow=classic;html=1;rounded=0;exitX=0.5;exitY=1;exitDx=0;exitDy=0;entryX=0.5;entryY=0;entryDx=0;entryDy=0;strokeWidth=1.1810999999999998;strokeColor=#000000;fontSize=10;" parent="WIyWlLk6GJQsqaUBKTNV-1" edge="1">
          <mxGeometry width="50" height="50" relative="1" as="geometry">
            <mxPoint x="586.9699999999999" y="656.5" as="sourcePoint" />
            <mxPoint x="586.9699999999999" y="686.5" as="targetPoint" />
          </mxGeometry>
        </mxCell>
        <mxCell id="kNPgMg_u-2HI5fr7H4LX-80" value="" style="endArrow=classic;html=1;rounded=0;exitX=0.5;exitY=1;exitDx=0;exitDy=0;entryX=0.5;entryY=0;entryDx=0;entryDy=0;strokeWidth=1.1810999999999998;strokeColor=#000000;fontSize=10;" parent="WIyWlLk6GJQsqaUBKTNV-1" edge="1">
          <mxGeometry width="50" height="50" relative="1" as="geometry">
            <mxPoint x="586.9699999999999" y="1203.43" as="sourcePoint" />
            <mxPoint x="586.9699999999999" y="1233.43" as="targetPoint" />
          </mxGeometry>
        </mxCell>
        <mxCell id="kNPgMg_u-2HI5fr7H4LX-81" value="" style="endArrow=classic;html=1;rounded=0;exitX=0.5;exitY=1;exitDx=0;exitDy=0;entryX=0.5;entryY=0;entryDx=0;entryDy=0;strokeWidth=1.1810999999999998;strokeColor=#000000;fontSize=10;" parent="WIyWlLk6GJQsqaUBKTNV-1" edge="1">
          <mxGeometry width="50" height="50" relative="1" as="geometry">
            <mxPoint x="591.06" y="1747.6599999999999" as="sourcePoint" />
            <mxPoint x="591.06" y="1777.6599999999999" as="targetPoint" />
          </mxGeometry>
        </mxCell>
        <mxCell id="kNPgMg_u-2HI5fr7H4LX-82" value="step = 0" style="rhombus;whiteSpace=wrap;html=1;strokeWidth=1.1810999999999998;strokeColor=#000000;fontSize=10;" parent="WIyWlLk6GJQsqaUBKTNV-1" vertex="1">
          <mxGeometry x="534" y="1866.79" width="118.11" height="59.055" as="geometry" />
        </mxCell>
        <mxCell id="kNPgMg_u-2HI5fr7H4LX-83" value="" style="endArrow=classic;html=1;rounded=0;exitX=0.5;exitY=1;exitDx=0;exitDy=0;entryX=0.5;entryY=0;entryDx=0;entryDy=0;strokeWidth=1.1810999999999998;strokeColor=#000000;fontSize=10;" parent="WIyWlLk6GJQsqaUBKTNV-1" target="kNPgMg_u-2HI5fr7H4LX-82" edge="1">
          <mxGeometry width="50" height="50" relative="1" as="geometry">
            <mxPoint x="593.0999999999999" y="1837.5" as="sourcePoint" />
            <mxPoint x="614.02" y="1867.5" as="targetPoint" />
          </mxGeometry>
        </mxCell>
        <mxCell id="kNPgMg_u-2HI5fr7H4LX-84" value="Так" style="text;html=1;align=center;verticalAlign=middle;resizable=0;points=[];autosize=1;strokeColor=none;fillColor=none;strokeWidth=1.1810999999999998;fontSize=10;" parent="WIyWlLk6GJQsqaUBKTNV-1" vertex="1">
          <mxGeometry x="491.0999999999999" y="1877.62" width="34" height="24" as="geometry" />
        </mxCell>
        <mxCell id="kNPgMg_u-2HI5fr7H4LX-85" value="" style="line;strokeWidth=1.1810999999999998;html=1;strokeColor=#000000;fontSize=10;" parent="WIyWlLk6GJQsqaUBKTNV-1" vertex="1">
          <mxGeometry x="478.0999999999999" y="1891.62" width="59" height="10" as="geometry" />
        </mxCell>
        <mxCell id="kNPgMg_u-2HI5fr7H4LX-86" value="" style="endArrow=classic;html=1;rounded=0;exitX=0.5;exitY=1;exitDx=0;exitDy=0;entryX=0.5;entryY=0;entryDx=0;entryDy=0;strokeWidth=1.1810999999999998;strokeColor=#000000;fontSize=10;" parent="WIyWlLk6GJQsqaUBKTNV-1" edge="1">
          <mxGeometry width="50" height="50" relative="1" as="geometry">
            <mxPoint x="478.0999999999999" y="1896.0099999999998" as="sourcePoint" />
            <mxPoint x="478.0999999999999" y="1926.0099999999998" as="targetPoint" />
          </mxGeometry>
        </mxCell>
        <mxCell id="kNPgMg_u-2HI5fr7H4LX-87" value="valide = false" style="rounded=0;whiteSpace=wrap;html=1;strokeWidth=1.1810999999999998;strokeColor=#000000;fontSize=10;" parent="WIyWlLk6GJQsqaUBKTNV-1" vertex="1">
          <mxGeometry x="418.99" y="2014" width="118.11" height="59.055" as="geometry" />
        </mxCell>
        <mxCell id="kNPgMg_u-2HI5fr7H4LX-89" value="" style="endArrow=classic;html=1;rounded=0;exitX=0.5;exitY=1;exitDx=0;exitDy=0;entryX=0.5;entryY=0;entryDx=0;entryDy=0;strokeWidth=1.1810999999999998;strokeColor=#000000;fontSize=10;" parent="WIyWlLk6GJQsqaUBKTNV-1" edge="1">
          <mxGeometry width="50" height="50" relative="1" as="geometry">
            <mxPoint x="478.0999999999999" y="1984.9099999999999" as="sourcePoint" />
            <mxPoint x="478.0999999999999" y="2014.9099999999999" as="targetPoint" />
          </mxGeometry>
        </mxCell>
        <mxCell id="kNPgMg_u-2HI5fr7H4LX-91" value="" style="endArrow=classic;html=1;rounded=0;exitX=0.5;exitY=1;exitDx=0;exitDy=0;strokeWidth=1.1810999999999998;strokeColor=#000000;fontSize=10;" parent="WIyWlLk6GJQsqaUBKTNV-1" edge="1">
          <mxGeometry width="50" height="50" relative="1" as="geometry">
            <mxPoint x="592.8699999999999" y="1925.85" as="sourcePoint" />
            <mxPoint x="593" y="2128" as="targetPoint" />
          </mxGeometry>
        </mxCell>
        <mxCell id="kNPgMg_u-2HI5fr7H4LX-92" value="" style="line;strokeWidth=1.1810999999999998;direction=south;html=1;strokeColor=#000000;fontSize=10;" parent="WIyWlLk6GJQsqaUBKTNV-1" vertex="1">
          <mxGeometry x="474.57000000000005" y="2073.06" width="10" height="29.94" as="geometry" />
        </mxCell>
        <mxCell id="kNPgMg_u-2HI5fr7H4LX-93" value="Вивід&lt;div&gt;&quot;&lt;span style=&quot;background-color: initial;&quot;&gt;Значення кроку має бути числом&quot;&lt;/span&gt;&lt;/div&gt;" style="shape=parallelogram;perimeter=parallelogramPerimeter;whiteSpace=wrap;html=1;fixedSize=1;strokeWidth=1.1810999999999998;strokeColor=#000000;fontSize=10;" parent="WIyWlLk6GJQsqaUBKTNV-1" vertex="1">
          <mxGeometry x="765.0699999999999" y="1688.6699999999998" width="118.11" height="59.055" as="geometry" />
        </mxCell>
        <mxCell id="kNPgMg_u-2HI5fr7H4LX-94" value="" style="endArrow=classic;html=1;rounded=0;exitX=0.929;exitY=0.283;exitDx=0;exitDy=0;exitPerimeter=0;" parent="WIyWlLk6GJQsqaUBKTNV-1" edge="1">
          <mxGeometry width="50" height="50" relative="1" as="geometry">
            <mxPoint x="479.8000000000001" y="2103" as="sourcePoint" />
            <mxPoint x="593" y="2103" as="targetPoint" />
          </mxGeometry>
        </mxCell>
        <mxCell id="kNPgMg_u-2HI5fr7H4LX-95" value="&lt;div&gt;&amp;nbsp; &amp;nbsp; &amp;nbsp;&lt;span style=&quot;background-color: initial;&quot;&gt;Вивід &lt;/span&gt;&lt;span style=&quot;background-color: initial;&quot;&gt;&quot;&lt;/span&gt;&lt;span style=&quot;background-color: initial;&quot;&gt;Значення кроку не може&lt;/span&gt;&lt;/div&gt;&lt;div&gt;&lt;span style=&quot;background-color: initial;&quot;&gt;&amp;nbsp;бути від&#39;ємним&amp;nbsp;&lt;/span&gt;&lt;/div&gt;&lt;div&gt;&lt;span style=&quot;background-color: initial;&quot;&gt;при початковому більшем&quot;&lt;/span&gt;&lt;/div&gt;" style="shape=parallelogram;perimeter=parallelogramPerimeter;whiteSpace=wrap;html=1;fixedSize=1;strokeWidth=1.1810999999999998;strokeColor=#000000;fontSize=10;" parent="WIyWlLk6GJQsqaUBKTNV-1" vertex="1">
          <mxGeometry x="418.99" y="2187.06" width="118.11" height="59.055" as="geometry" />
        </mxCell>
        <mxCell id="kNPgMg_u-2HI5fr7H4LX-96" value="&lt;div&gt;&lt;span style=&quot;background-color: initial;&quot;&gt;startX&amp;lt;endX&lt;/span&gt;&lt;br&gt;&lt;/div&gt;&lt;div&gt;та&lt;/div&gt;&lt;div&gt;step&amp;lt;0&lt;/div&gt;" style="rhombus;whiteSpace=wrap;html=1;strokeWidth=1.1810999999999998;strokeColor=#000000;fontSize=10;" parent="WIyWlLk6GJQsqaUBKTNV-1" vertex="1">
          <mxGeometry x="534" y="2128" width="118.11" height="59.055" as="geometry" />
        </mxCell>
        <mxCell id="kNPgMg_u-2HI5fr7H4LX-97" value="Так" style="text;html=1;align=center;verticalAlign=middle;resizable=0;points=[];autosize=1;strokeColor=none;fillColor=none;strokeWidth=1.1810999999999998;fontSize=10;" parent="WIyWlLk6GJQsqaUBKTNV-1" vertex="1">
          <mxGeometry x="491.0999999999999" y="2138.83" width="34" height="24" as="geometry" />
        </mxCell>
        <mxCell id="kNPgMg_u-2HI5fr7H4LX-98" value="" style="line;strokeWidth=1.1810999999999998;html=1;strokeColor=#000000;fontSize=10;" parent="WIyWlLk6GJQsqaUBKTNV-1" vertex="1">
          <mxGeometry x="478.0999999999999" y="2152.83" width="59" height="10" as="geometry" />
        </mxCell>
        <mxCell id="kNPgMg_u-2HI5fr7H4LX-99" value="" style="endArrow=classic;html=1;rounded=0;exitX=0.5;exitY=1;exitDx=0;exitDy=0;entryX=0.5;entryY=0;entryDx=0;entryDy=0;strokeWidth=1.1810999999999998;strokeColor=#000000;fontSize=10;" parent="WIyWlLk6GJQsqaUBKTNV-1" edge="1">
          <mxGeometry width="50" height="50" relative="1" as="geometry">
            <mxPoint x="478.0999999999999" y="2157.22" as="sourcePoint" />
            <mxPoint x="478.0999999999999" y="2187.22" as="targetPoint" />
          </mxGeometry>
        </mxCell>
        <mxCell id="kNPgMg_u-2HI5fr7H4LX-100" value="valide = false" style="rounded=0;whiteSpace=wrap;html=1;strokeWidth=1.1810999999999998;strokeColor=#000000;fontSize=10;" parent="WIyWlLk6GJQsqaUBKTNV-1" vertex="1">
          <mxGeometry x="418.99" y="2275.21" width="118.11" height="59.055" as="geometry" />
        </mxCell>
        <mxCell id="kNPgMg_u-2HI5fr7H4LX-101" value="" style="endArrow=classic;html=1;rounded=0;exitX=0.5;exitY=1;exitDx=0;exitDy=0;entryX=0.5;entryY=0;entryDx=0;entryDy=0;strokeWidth=1.1810999999999998;strokeColor=#000000;fontSize=10;" parent="WIyWlLk6GJQsqaUBKTNV-1" edge="1">
          <mxGeometry width="50" height="50" relative="1" as="geometry">
            <mxPoint x="478.0999999999999" y="2246.12" as="sourcePoint" />
            <mxPoint x="478.0999999999999" y="2276.12" as="targetPoint" />
          </mxGeometry>
        </mxCell>
        <mxCell id="kNPgMg_u-2HI5fr7H4LX-102" value="" style="endArrow=classic;html=1;rounded=0;exitX=0.5;exitY=1;exitDx=0;exitDy=0;strokeWidth=1.1810999999999998;strokeColor=#000000;fontSize=10;" parent="WIyWlLk6GJQsqaUBKTNV-1" edge="1">
          <mxGeometry width="50" height="50" relative="1" as="geometry">
            <mxPoint x="592.8699999999999" y="2187.06" as="sourcePoint" />
            <mxPoint x="593" y="2389.21" as="targetPoint" />
          </mxGeometry>
        </mxCell>
        <mxCell id="kNPgMg_u-2HI5fr7H4LX-103" value="" style="line;strokeWidth=1.1810999999999998;direction=south;html=1;strokeColor=#000000;fontSize=10;" parent="WIyWlLk6GJQsqaUBKTNV-1" vertex="1">
          <mxGeometry x="474.57000000000005" y="2334.27" width="10" height="29.94" as="geometry" />
        </mxCell>
        <mxCell id="kNPgMg_u-2HI5fr7H4LX-104" value="" style="endArrow=classic;html=1;rounded=0;exitX=0.929;exitY=0.283;exitDx=0;exitDy=0;exitPerimeter=0;" parent="WIyWlLk6GJQsqaUBKTNV-1" edge="1">
          <mxGeometry width="50" height="50" relative="1" as="geometry">
            <mxPoint x="479.8000000000001" y="2364.21" as="sourcePoint" />
            <mxPoint x="593" y="2364.21" as="targetPoint" />
          </mxGeometry>
        </mxCell>
        <mxCell id="kNPgMg_u-2HI5fr7H4LX-105" value="&lt;div&gt;&amp;nbsp; &amp;nbsp; &amp;nbsp;&lt;span style=&quot;background-color: initial;&quot;&gt;Вивід &quot;&lt;/span&gt;&lt;span style=&quot;background-color: initial;&quot;&gt;Значення кроку не може&lt;/span&gt;&lt;/div&gt;&lt;div&gt;&lt;span style=&quot;background-color: initial;&quot;&gt;&amp;nbsp;бути від&#39;ємним&amp;nbsp;&lt;/span&gt;&lt;/div&gt;&lt;div&gt;&lt;span style=&quot;background-color: initial;&quot;&gt;при початковому більшем&quot;&lt;/span&gt;&lt;/div&gt;" style="shape=parallelogram;perimeter=parallelogramPerimeter;whiteSpace=wrap;html=1;fixedSize=1;strokeWidth=1.1810999999999998;strokeColor=#000000;fontSize=10;" parent="WIyWlLk6GJQsqaUBKTNV-1" vertex="1">
          <mxGeometry x="418.99" y="2449.06" width="118.11" height="59.055" as="geometry" />
        </mxCell>
        <mxCell id="kNPgMg_u-2HI5fr7H4LX-106" value="&lt;div&gt;&lt;span style=&quot;background-color: initial;&quot;&gt;startX&amp;gt;endX&lt;/span&gt;&lt;br&gt;&lt;/div&gt;&lt;div&gt;та&lt;/div&gt;&lt;div&gt;step&amp;gt;0&lt;/div&gt;" style="rhombus;whiteSpace=wrap;html=1;strokeWidth=1.1810999999999998;strokeColor=#000000;fontSize=10;" parent="WIyWlLk6GJQsqaUBKTNV-1" vertex="1">
          <mxGeometry x="534" y="2390" width="118.11" height="59.055" as="geometry" />
        </mxCell>
        <mxCell id="kNPgMg_u-2HI5fr7H4LX-107" value="Так" style="text;html=1;align=center;verticalAlign=middle;resizable=0;points=[];autosize=1;strokeColor=none;fillColor=none;strokeWidth=1.1810999999999998;fontSize=10;" parent="WIyWlLk6GJQsqaUBKTNV-1" vertex="1">
          <mxGeometry x="491.0999999999999" y="2400.83" width="34" height="24" as="geometry" />
        </mxCell>
        <mxCell id="kNPgMg_u-2HI5fr7H4LX-108" value="" style="line;strokeWidth=1.1810999999999998;html=1;strokeColor=#000000;fontSize=10;" parent="WIyWlLk6GJQsqaUBKTNV-1" vertex="1">
          <mxGeometry x="478.0999999999999" y="2414.83" width="59" height="10" as="geometry" />
        </mxCell>
        <mxCell id="kNPgMg_u-2HI5fr7H4LX-109" value="" style="endArrow=classic;html=1;rounded=0;exitX=0.5;exitY=1;exitDx=0;exitDy=0;entryX=0.5;entryY=0;entryDx=0;entryDy=0;strokeWidth=1.1810999999999998;strokeColor=#000000;fontSize=10;" parent="WIyWlLk6GJQsqaUBKTNV-1" edge="1">
          <mxGeometry width="50" height="50" relative="1" as="geometry">
            <mxPoint x="478.0999999999999" y="2419.22" as="sourcePoint" />
            <mxPoint x="478.0999999999999" y="2449.22" as="targetPoint" />
          </mxGeometry>
        </mxCell>
        <mxCell id="kNPgMg_u-2HI5fr7H4LX-110" value="valide = false" style="rounded=0;whiteSpace=wrap;html=1;strokeWidth=1.1810999999999998;strokeColor=#000000;fontSize=10;" parent="WIyWlLk6GJQsqaUBKTNV-1" vertex="1">
          <mxGeometry x="418.99" y="2537.21" width="118.11" height="59.055" as="geometry" />
        </mxCell>
        <mxCell id="kNPgMg_u-2HI5fr7H4LX-111" value="" style="endArrow=classic;html=1;rounded=0;exitX=0.5;exitY=1;exitDx=0;exitDy=0;entryX=0.5;entryY=0;entryDx=0;entryDy=0;strokeWidth=1.1810999999999998;strokeColor=#000000;fontSize=10;" parent="WIyWlLk6GJQsqaUBKTNV-1" edge="1">
          <mxGeometry width="50" height="50" relative="1" as="geometry">
            <mxPoint x="478.0999999999999" y="2508.12" as="sourcePoint" />
            <mxPoint x="478.0999999999999" y="2538.12" as="targetPoint" />
          </mxGeometry>
        </mxCell>
        <mxCell id="kNPgMg_u-2HI5fr7H4LX-113" value="" style="line;strokeWidth=1.1810999999999998;direction=south;html=1;strokeColor=#000000;fontSize=10;" parent="WIyWlLk6GJQsqaUBKTNV-1" vertex="1">
          <mxGeometry x="474.57000000000005" y="2596.27" width="10" height="29.94" as="geometry" />
        </mxCell>
        <mxCell id="kNPgMg_u-2HI5fr7H4LX-114" value="" style="endArrow=classic;html=1;rounded=0;exitX=0.929;exitY=0.283;exitDx=0;exitDy=0;exitPerimeter=0;" parent="WIyWlLk6GJQsqaUBKTNV-1" edge="1">
          <mxGeometry width="50" height="50" relative="1" as="geometry">
            <mxPoint x="479.8000000000001" y="2626.21" as="sourcePoint" />
            <mxPoint x="593" y="2626.21" as="targetPoint" />
          </mxGeometry>
        </mxCell>
        <mxCell id="kNPgMg_u-2HI5fr7H4LX-115" value="" style="endArrow=classic;html=1;rounded=0;exitX=0.5;exitY=1;exitDx=0;exitDy=0;entryX=0.5;entryY=0;entryDx=0;entryDy=0;strokeWidth=1.1810999999999998;strokeColor=#000000;fontSize=10;" parent="WIyWlLk6GJQsqaUBKTNV-1" edge="1">
          <mxGeometry width="50" height="50" relative="1" as="geometry">
            <mxPoint x="710.1050000000001" y="2747.995" as="sourcePoint" />
            <mxPoint x="710.11" y="2777.94" as="targetPoint" />
          </mxGeometry>
        </mxCell>
        <mxCell id="kNPgMg_u-2HI5fr7H4LX-116" value="Цикл 4&lt;div&gt;&lt;div&gt;x = startX;&lt;/div&gt;&lt;div&gt;x &amp;lt; endX;&lt;/div&gt;&lt;div&gt;x&amp;nbsp; = x + step&lt;br&gt;&lt;/div&gt;&lt;/div&gt;" style="shape=loopLimit;whiteSpace=wrap;html=1;strokeWidth=1.1810999999999998;strokeColor=#000000;fontSize=10;" parent="WIyWlLk6GJQsqaUBKTNV-1" vertex="1">
          <mxGeometry x="651.0600000000001" y="2777.94" width="118.11" height="59.055" as="geometry" />
        </mxCell>
        <mxCell id="kNPgMg_u-2HI5fr7H4LX-117" value="" style="endArrow=classic;html=1;rounded=0;exitX=0.5;exitY=1;exitDx=0;exitDy=0;entryX=0.5;entryY=0;entryDx=0;entryDy=0;strokeWidth=1.1810999999999998;strokeColor=#000000;fontSize=10;" parent="WIyWlLk6GJQsqaUBKTNV-1" edge="1">
          <mxGeometry width="50" height="50" relative="1" as="geometry">
            <mxPoint x="709.83" y="2837.16" as="sourcePoint" />
            <mxPoint x="709.89" y="2867.16" as="targetPoint" />
          </mxGeometry>
        </mxCell>
        <mxCell id="kNPgMg_u-2HI5fr7H4LX-120" value="denominator =&lt;div&gt;= (9.5 * Sin(x) - 3&lt;sup&gt;x&lt;/sup&gt;)&lt;sup&gt;0.3&lt;/sup&gt;&lt;/div&gt;" style="rounded=0;whiteSpace=wrap;html=1;strokeWidth=1.1810999999999998;strokeColor=#000000;fontSize=10;" parent="WIyWlLk6GJQsqaUBKTNV-1" vertex="1">
          <mxGeometry x="653.9" y="2868" width="118.11" height="59.055" as="geometry" />
        </mxCell>
        <mxCell id="kNPgMg_u-2HI5fr7H4LX-121" value="" style="endArrow=classic;html=1;rounded=0;exitX=0.5;exitY=1;exitDx=0;exitDy=0;entryX=0.5;entryY=0;entryDx=0;entryDy=0;strokeWidth=1.1810999999999998;strokeColor=#000000;fontSize=10;" parent="WIyWlLk6GJQsqaUBKTNV-1" edge="1">
          <mxGeometry width="50" height="50" relative="1" as="geometry">
            <mxPoint x="709.83" y="2927.0499999999997" as="sourcePoint" />
            <mxPoint x="709.89" y="2957.0499999999997" as="targetPoint" />
          </mxGeometry>
        </mxCell>
        <mxCell id="kNPgMg_u-2HI5fr7H4LX-122" value="&lt;div&gt;numerator =&lt;/div&gt;&lt;div&gt;= (3Sin&lt;sup&gt;3&lt;/sup&gt;x + 0.4cos&lt;sup&gt;2&lt;/sup&gt;&lt;span style=&quot;font-size: 8.33333px;&quot;&gt;x&lt;/span&gt;&lt;/div&gt;" style="rounded=0;whiteSpace=wrap;html=1;strokeWidth=1.1810999999999998;strokeColor=#000000;fontSize=10;" parent="WIyWlLk6GJQsqaUBKTNV-1" vertex="1">
          <mxGeometry x="653.9" y="2957.89" width="118.11" height="59.055" as="geometry" />
        </mxCell>
        <mxCell id="kNPgMg_u-2HI5fr7H4LX-123" value="numerator = 0" style="rhombus;whiteSpace=wrap;html=1;strokeWidth=1.1810999999999998;strokeColor=#000000;fontSize=10;" parent="WIyWlLk6GJQsqaUBKTNV-1" vertex="1">
          <mxGeometry x="651.42" y="3046.23" width="118.11" height="59.055" as="geometry" />
        </mxCell>
        <mxCell id="kNPgMg_u-2HI5fr7H4LX-124" value="" style="endArrow=classic;html=1;rounded=0;exitX=0.5;exitY=1;exitDx=0;exitDy=0;entryX=0.5;entryY=0;entryDx=0;entryDy=0;strokeWidth=1.1810999999999998;strokeColor=#000000;fontSize=10;" parent="WIyWlLk6GJQsqaUBKTNV-1" target="kNPgMg_u-2HI5fr7H4LX-123" edge="1">
          <mxGeometry width="50" height="50" relative="1" as="geometry">
            <mxPoint x="710.5199999999999" y="3016.94" as="sourcePoint" />
            <mxPoint x="731.4399999999999" y="3046.94" as="targetPoint" />
          </mxGeometry>
        </mxCell>
        <mxCell id="kNPgMg_u-2HI5fr7H4LX-125" value="Так" style="text;html=1;align=center;verticalAlign=middle;resizable=0;points=[];autosize=1;strokeColor=none;fillColor=none;strokeWidth=1.1810999999999998;fontSize=10;" parent="WIyWlLk6GJQsqaUBKTNV-1" vertex="1">
          <mxGeometry x="608.5199999999999" y="3057.06" width="34" height="24" as="geometry" />
        </mxCell>
        <mxCell id="kNPgMg_u-2HI5fr7H4LX-126" value="" style="line;strokeWidth=1.1810999999999998;html=1;strokeColor=#000000;fontSize=10;" parent="WIyWlLk6GJQsqaUBKTNV-1" vertex="1">
          <mxGeometry x="595.5199999999999" y="3071.06" width="59" height="10" as="geometry" />
        </mxCell>
        <mxCell id="kNPgMg_u-2HI5fr7H4LX-127" value="" style="endArrow=classic;html=1;rounded=0;exitX=0.5;exitY=1;exitDx=0;exitDy=0;entryX=0.5;entryY=0;entryDx=0;entryDy=0;strokeWidth=1.1810999999999998;strokeColor=#000000;fontSize=10;" parent="WIyWlLk6GJQsqaUBKTNV-1" edge="1">
          <mxGeometry width="50" height="50" relative="1" as="geometry">
            <mxPoint x="595.5199999999999" y="3075.45" as="sourcePoint" />
            <mxPoint x="595.5199999999999" y="3105.45" as="targetPoint" />
          </mxGeometry>
        </mxCell>
        <mxCell id="kNPgMg_u-2HI5fr7H4LX-128" value="Ні" style="text;html=1;align=center;verticalAlign=middle;resizable=0;points=[];autosize=1;strokeColor=none;fillColor=none;strokeWidth=1.1810999999999998;fontSize=10;" parent="WIyWlLk6GJQsqaUBKTNV-1" vertex="1">
          <mxGeometry x="785.06" y="3057.06" width="27" height="24" as="geometry" />
        </mxCell>
        <mxCell id="kNPgMg_u-2HI5fr7H4LX-129" value="" style="line;strokeWidth=1.1810999999999998;html=1;direction=west;strokeColor=#000000;fontSize=10;" parent="WIyWlLk6GJQsqaUBKTNV-1" vertex="1">
          <mxGeometry x="771.5799999999999" y="3071.06" width="59" height="10" as="geometry" />
        </mxCell>
        <mxCell id="kNPgMg_u-2HI5fr7H4LX-130" value="" style="endArrow=classic;html=1;rounded=0;exitX=0.5;exitY=1;exitDx=0;exitDy=0;entryX=0.5;entryY=0;entryDx=0;entryDy=0;strokeWidth=1.1810999999999998;strokeColor=#000000;fontSize=10;" parent="WIyWlLk6GJQsqaUBKTNV-1" edge="1">
          <mxGeometry width="50" height="50" relative="1" as="geometry">
            <mxPoint x="830.5799999999999" y="3076.06" as="sourcePoint" />
            <mxPoint x="830.5799999999999" y="3106.06" as="targetPoint" />
          </mxGeometry>
        </mxCell>
        <mxCell id="kNPgMg_u-2HI5fr7H4LX-132" value="result = denominator / numerator" style="rounded=0;whiteSpace=wrap;html=1;strokeWidth=1.1810999999999998;strokeColor=#000000;fontSize=10;" parent="WIyWlLk6GJQsqaUBKTNV-1" vertex="1">
          <mxGeometry x="888.1399999999999" y="3252.95" width="118.11" height="59.055" as="geometry" />
        </mxCell>
        <mxCell id="kNPgMg_u-2HI5fr7H4LX-135" value="Вивід &quot;При&amp;nbsp;&lt;div&gt;значенні x&amp;nbsp;&lt;/div&gt;&lt;div&gt;знаменник набуває значення 0&quot;&lt;br&gt;&lt;/div&gt;" style="shape=parallelogram;perimeter=parallelogramPerimeter;whiteSpace=wrap;html=1;fixedSize=1;strokeWidth=1.1810999999999998;strokeColor=#000000;fontSize=10;" parent="WIyWlLk6GJQsqaUBKTNV-1" vertex="1">
          <mxGeometry x="535.79" y="3104.89" width="118.11" height="59.055" as="geometry" />
        </mxCell>
        <mxCell id="kNPgMg_u-2HI5fr7H4LX-136" value="Є перепвнення X" style="rhombus;whiteSpace=wrap;html=1;strokeWidth=1.1810999999999998;strokeColor=#000000;fontSize=10;" parent="WIyWlLk6GJQsqaUBKTNV-1" vertex="1">
          <mxGeometry x="770.15" y="3105.29" width="118.11" height="59.055" as="geometry" />
        </mxCell>
        <mxCell id="kNPgMg_u-2HI5fr7H4LX-137" value="Так" style="text;html=1;align=center;verticalAlign=middle;resizable=0;points=[];autosize=1;strokeColor=none;fillColor=none;strokeWidth=1.1810999999999998;fontSize=10;" parent="WIyWlLk6GJQsqaUBKTNV-1" vertex="1">
          <mxGeometry x="727.2499999999999" y="3116.12" width="34" height="24" as="geometry" />
        </mxCell>
        <mxCell id="kNPgMg_u-2HI5fr7H4LX-138" value="" style="line;strokeWidth=1.1810999999999998;html=1;strokeColor=#000000;fontSize=10;" parent="WIyWlLk6GJQsqaUBKTNV-1" vertex="1">
          <mxGeometry x="714.2499999999999" y="3130.12" width="59" height="10" as="geometry" />
        </mxCell>
        <mxCell id="kNPgMg_u-2HI5fr7H4LX-139" value="" style="endArrow=classic;html=1;rounded=0;exitX=0.5;exitY=1;exitDx=0;exitDy=0;entryX=0.5;entryY=0;entryDx=0;entryDy=0;strokeWidth=1.1810999999999998;strokeColor=#000000;fontSize=10;" parent="WIyWlLk6GJQsqaUBKTNV-1" edge="1">
          <mxGeometry width="50" height="50" relative="1" as="geometry">
            <mxPoint x="714.2499999999999" y="3134.5099999999998" as="sourcePoint" />
            <mxPoint x="714.2499999999999" y="3164.5099999999998" as="targetPoint" />
          </mxGeometry>
        </mxCell>
        <mxCell id="kNPgMg_u-2HI5fr7H4LX-140" value="Ні" style="text;html=1;align=center;verticalAlign=middle;resizable=0;points=[];autosize=1;strokeColor=none;fillColor=none;strokeWidth=1.1810999999999998;fontSize=10;" parent="WIyWlLk6GJQsqaUBKTNV-1" vertex="1">
          <mxGeometry x="903.79" y="3116.12" width="27" height="24" as="geometry" />
        </mxCell>
        <mxCell id="kNPgMg_u-2HI5fr7H4LX-141" value="" style="line;strokeWidth=1.1810999999999998;html=1;direction=west;strokeColor=#000000;fontSize=10;" parent="WIyWlLk6GJQsqaUBKTNV-1" vertex="1">
          <mxGeometry x="890.31" y="3130.12" width="59" height="10" as="geometry" />
        </mxCell>
        <mxCell id="kNPgMg_u-2HI5fr7H4LX-142" value="" style="endArrow=classic;html=1;rounded=0;exitX=0.5;exitY=1;exitDx=0;exitDy=0;entryX=0.5;entryY=0;entryDx=0;entryDy=0;strokeWidth=1.1810999999999998;strokeColor=#000000;fontSize=10;" parent="WIyWlLk6GJQsqaUBKTNV-1" edge="1">
          <mxGeometry width="50" height="50" relative="1" as="geometry">
            <mxPoint x="949.31" y="3135.12" as="sourcePoint" />
            <mxPoint x="949.31" y="3165.12" as="targetPoint" />
          </mxGeometry>
        </mxCell>
        <mxCell id="kNPgMg_u-2HI5fr7H4LX-143" value="" style="line;strokeWidth=1.1810999999999998;direction=south;html=1;strokeColor=#000000;fontSize=10;" parent="WIyWlLk6GJQsqaUBKTNV-1" vertex="1">
          <mxGeometry x="589.84" y="3163.95" width="10" height="174.05" as="geometry" />
        </mxCell>
        <mxCell id="kNPgMg_u-2HI5fr7H4LX-145" value="Вивід &quot;При&amp;nbsp;&lt;div&gt;&lt;span style=&quot;background-color: initial;&quot;&gt;значенні x&amp;nbsp;&lt;/span&gt;&lt;div&gt;результат набуває надвеликого&amp;nbsp;&lt;/div&gt;&lt;div&gt;значення&quot;&lt;br&gt;&lt;/div&gt;&lt;/div&gt;" style="shape=parallelogram;perimeter=parallelogramPerimeter;whiteSpace=wrap;html=1;fixedSize=1;strokeWidth=1.1810999999999998;strokeColor=#000000;fontSize=10;" parent="WIyWlLk6GJQsqaUBKTNV-1" vertex="1">
          <mxGeometry x="654.52" y="3163.95" width="118.11" height="59.055" as="geometry" />
        </mxCell>
        <mxCell id="kNPgMg_u-2HI5fr7H4LX-147" value="" style="endArrow=classic;html=1;rounded=0;exitX=0.5;exitY=1;exitDx=0;exitDy=0;entryX=0.5;entryY=0;entryDx=0;entryDy=0;strokeWidth=1.1810999999999998;strokeColor=#000000;fontSize=10;" parent="WIyWlLk6GJQsqaUBKTNV-1" edge="1">
          <mxGeometry width="50" height="50" relative="1" as="geometry">
            <mxPoint x="949.31" y="3223.3399999999997" as="sourcePoint" />
            <mxPoint x="949.31" y="3253.3399999999997" as="targetPoint" />
          </mxGeometry>
        </mxCell>
        <mxCell id="kNPgMg_u-2HI5fr7H4LX-148" value="Вивід &quot;При&amp;nbsp;&lt;div&gt;&lt;span style=&quot;background-color: initial;&quot;&gt;значенні x&amp;nbsp;&lt;/span&gt;&lt;div&gt;результат набуває надвеликого&amp;nbsp;&lt;/div&gt;&lt;div&gt;значення&quot;&lt;br&gt;&lt;/div&gt;&lt;/div&gt;" style="shape=parallelogram;perimeter=parallelogramPerimeter;whiteSpace=wrap;html=1;fixedSize=1;strokeWidth=1.1810999999999998;strokeColor=#000000;fontSize=10;" parent="WIyWlLk6GJQsqaUBKTNV-1" vertex="1">
          <mxGeometry x="888.14" y="3164.3399999999997" width="118.11" height="59.055" as="geometry" />
        </mxCell>
        <mxCell id="kNPgMg_u-2HI5fr7H4LX-149" value="" style="group" parent="WIyWlLk6GJQsqaUBKTNV-1" vertex="1" connectable="0">
          <mxGeometry x="653.4900000000001" y="3353.0000000000005" width="118.93999999999994" height="59.054999999999836" as="geometry" />
        </mxCell>
        <mxCell id="kNPgMg_u-2HI5fr7H4LX-118" value="" style="shape=loopLimit;whiteSpace=wrap;html=1;strokeWidth=1.1810999999999998;strokeColor=#000000;rotation=-180;fontSize=10;" parent="kNPgMg_u-2HI5fr7H4LX-149" vertex="1">
          <mxGeometry x="0.8300000000000409" y="-4.547473508864641e-13" width="118.11" height="59.055" as="geometry" />
        </mxCell>
        <mxCell id="kNPgMg_u-2HI5fr7H4LX-119" value="&lt;div style=&quot;font-size: 10px;&quot;&gt;Кінець циклу 4&lt;/div&gt;" style="text;html=1;align=center;verticalAlign=middle;whiteSpace=wrap;rounded=0;fontSize=10;" parent="kNPgMg_u-2HI5fr7H4LX-149" vertex="1">
          <mxGeometry y="14.52999999999929" width="118.01" height="30" as="geometry" />
        </mxCell>
        <mxCell id="kNPgMg_u-2HI5fr7H4LX-150" value="" style="line;strokeWidth=1.1810999999999998;direction=south;html=1;strokeColor=#000000;fontSize=10;" parent="WIyWlLk6GJQsqaUBKTNV-1" vertex="1">
          <mxGeometry x="945" y="3312" width="10" height="25" as="geometry" />
        </mxCell>
        <mxCell id="kNPgMg_u-2HI5fr7H4LX-151" value="" style="endArrow=classic;html=1;rounded=0;exitX=1.003;exitY=0.536;exitDx=0;exitDy=0;exitPerimeter=0;" parent="WIyWlLk6GJQsqaUBKTNV-1" edge="1">
          <mxGeometry width="50" height="50" relative="1" as="geometry">
            <mxPoint x="593.9499999999999" y="3337.4951499999997" as="sourcePoint" />
            <mxPoint x="712" y="3337" as="targetPoint" />
          </mxGeometry>
        </mxCell>
        <mxCell id="kNPgMg_u-2HI5fr7H4LX-152" value="" style="endArrow=classic;html=1;rounded=0;exitX=0.991;exitY=0.478;exitDx=0;exitDy=0;exitPerimeter=0;" parent="WIyWlLk6GJQsqaUBKTNV-1" source="kNPgMg_u-2HI5fr7H4LX-150" edge="1">
          <mxGeometry width="50" height="50" relative="1" as="geometry">
            <mxPoint x="737" y="3253" as="sourcePoint" />
            <mxPoint x="713" y="3337" as="targetPoint" />
          </mxGeometry>
        </mxCell>
        <mxCell id="kNPgMg_u-2HI5fr7H4LX-153" value="" style="endArrow=classic;html=1;rounded=0;exitX=0.5;exitY=1;exitDx=0;exitDy=0;entryX=0.5;entryY=0;entryDx=0;entryDy=0;strokeWidth=1.1810999999999998;strokeColor=#000000;fontSize=10;" parent="WIyWlLk6GJQsqaUBKTNV-1" edge="1">
          <mxGeometry width="50" height="50" relative="1" as="geometry">
            <mxPoint x="716.34" y="3412.06" as="sourcePoint" />
            <mxPoint x="716.6" y="3453.95" as="targetPoint" />
          </mxGeometry>
        </mxCell>
        <mxCell id="kNPgMg_u-2HI5fr7H4LX-154" value="&lt;span style=&quot;font-size: 10px;&quot;&gt;Кінець&lt;/span&gt;" style="rounded=1;whiteSpace=wrap;html=1;arcSize=50;" parent="WIyWlLk6GJQsqaUBKTNV-1" vertex="1">
          <mxGeometry x="653.47" y="3454" width="118.11" height="59.055" as="geometry" />
        </mxCell>
      </root>
    </mxGraphModel>
  </diagram>
</mxfile>
